<svg xmlns="http://www.w3.org/2000/svg" version="1.1" xmlns:xlink="http://www.w3.org/1999/xlink" xmlns:svgjs="http://svgjs.dev/svgjs" viewBox="0 0 600 600"><path d="M143.50392150878906,161.81100463867188C145.86612701416016,130.70864486694336,46.06298319498698,12.795267740885416,99.80313873291016,21.25983428955078C153.54329427083334,29.724400838216148,415.9448610941569,150.59053675333658,465.9448547363281,212.59840393066406C515.9448483784994,274.6062711079915,447.4408950805664,357.67711639404297,399.8031005859375,393.3070373535156C352.1653060913086,428.9369583129883,232.48028691609701,457.28343709309894,180.1180877685547,426.3779296875C127.75588862101236,395.47242228190106,91.73226674397786,251.9684804280599,85.6299057006836,207.87399291992188C79.52754465738933,163.77950541178384,141.14171600341797,192.9133644104004,143.50392150878906,161.81100463867188C145.86612701416016,130.70864486694336,46.06298319498698,12.795267740885416,99.80313873291016,21.25983428955078" fill="url(&quot;#SvgjsLinearGradient1000&quot;)" transform="matrix(0.9025,0,0,0.9025,44.00766386032106,92.23354099273683)"></path><defs><linearGradient id="SvgjsLinearGradient1000" gradientTransform="rotate(258, 0.5, 0.5)"><stop stop-color="hsl(30, 100%, 50%)" offset="0"></stop><stop stop-color="hsl(30, 100%, 70%)" offset="1"></stop></linearGradient><linearGradient id="SvgjsLinearGradient1001"><stop stop-color="hsl(30, 100%, 50%)" offset="0"></stop><stop stop-color="hsl(30, 100%, 70%)" offset="1"></stop></linearGradient></defs><path d="M143.50392150878906,161.81100463867188C145.86612701416016,130.70864486694336,46.06298319498698,12.795267740885416,99.80313873291016,21.25983428955078C153.54329427083334,29.724400838216148,415.9448610941569,150.59053675333658,465.9448547363281,212.59840393066406C515.9448483784994,274.6062711079915,447.4408950805664,357.67711639404297,399.8031005859375,393.3070373535156C352.1653060913086,428.9369583129883,232.48028691609701,457.28343709309894,180.1180877685547,426.3779296875C127.75588862101236,395.47242228190106,91.73226674397786,251.9684804280599,85.6299057006836,207.87399291992188C79.52754465738933,163.77950541178384,141.14171600341797,192.9133644104004,143.50392150878906,161.81100463867188C145.86612701416016,130.70864486694336,46.06298319498698,12.795267740885416,99.80313873291016,21.25983428955078" fill-opacity="0.35" fill="url(&quot;#SvgjsLinearGradient1001&quot;)" opacity="1" stroke-opacity="1" stroke-width="0" stroke="hsl(340, 45%, 30%)" transform="matrix(0.9025,0,0,0.9025,102.65568174362184,97.44568393707277)"></path></svg>